<?xml version="1.0" encoding="UTF-8"?>
<svg id="svg2088" width="134" height="134" version="1.1" viewBox="0 0 35.454 35.454" xmlns="http://www.w3.org/2000/svg" xmlns:cc="http://creativecommons.org/ns#" xmlns:dc="http://purl.org/dc/elements/1.1/" xmlns:rdf="http://www.w3.org/1999/02/22-rdf-syntax-ns#"><metadata id="metadata2094"><rdf:RDF><cc:Work rdf:about=""><dc:format>image/svg+xml</dc:format><dc:type rdf:resource="http://purl.org/dc/dcmitype/StillImage"/><dc:title/></cc:Work></rdf:RDF></metadata><g id="g2132" fill="#1f5582"><g id="g2064" transform="translate(-81.079 -74.176)" stroke-width=".261"><path id="path2056" d="m81.079 92.13 14.735 2.6831 2.6371-2.6831z"/><g id="g2060" transform="translate(39.833,-5.4193)" fill-opacity=".7451"><path id="path2058" d="m41.246 97.347 14.735-2.6831 2.6371 2.6831z" fill="#1f5582" fill-opacity=".7451" stroke-width=".261"/></g><path id="path2062" d="m98.582 74.425-2.6831 14.735 2.6831 2.6371z" fill-opacity=".39216"/></g><g id="g2068" transform="rotate(90 78.023 37.023)" fill-opacity=".078431"><path id="path2066" d="m41.246 97.347 14.735-2.6831 2.6371 2.6831z" fill="#1f5582" fill-opacity=".078431"/></g><g id="g2082" transform="translate(-81.079 -74.176)" stroke-width=".261"><path id="path2070" d="m116.29 91.93-14.735-2.6831-2.6371 2.6831z" fill-opacity=".39216"/><g id="g2074" transform="rotate(180,78.766,94.738)" fill-opacity=".078431"><path id="path2072" d="m41.246 97.347 14.735-2.6831 2.6371 2.6831z" fill="#1f5582" fill-opacity=".078431" stroke-width=".261"/></g><path id="path2076" d="m98.783 109.63 2.6831-14.735-2.6831-2.6372z" fill-opacity=".39216"/><g id="g2080" transform="rotate(-90,76.056,74.817)" fill-opacity=".078431"><path id="path2078" d="m41.246 97.347 14.735-2.6831 2.6371 2.6831z" fill="#1f5582" fill-opacity=".078431" stroke-width=".261"/></g></g><path id="path2084" d="m18.452 1.3472 0.6413 3.1021a13.494 13.494 0 0 1 11.9 11.935l3.099 0.63872a16.536 16.536 0 0 0-15.64-15.676zm-1.7177 0.0134a16.536 16.536 0 0 0-15.63 15.611l3.0949-0.63976a13.494 13.494 0 0 1 11.896-11.872zm-15.63 17.344a16.536 16.536 0 0 0 15.59 15.654l-0.64234-3.1078a13.494 13.494 0 0 1-11.848-11.907zm32.999 0.0279-3.1052 0.64182a13.494 13.494 0 0 1-11.943 11.877l-0.6382 3.098a16.536 16.536 0 0 0 15.687-15.617z"/></g></svg>
